<?xml version="1.0" encoding="utf-8"?>
<!-- Generator: Adobe Illustrator 22.0.0, SVG Export Plug-In . SVG Version: 6.00 Build 0)  -->
<svg version="1.1" id="Warstwa_1" xmlns="http://www.w3.org/2000/svg" xmlns:xlink="http://www.w3.org/1999/xlink" x="0px" y="0px"
	 viewBox="0 0 1000 1000" style="enable-background:new 0 0 1000 1000;" xml:space="preserve">
<style type="text/css">
	.st0{enable-background:new    ;}
	.st1{fill:#512D1D;}
</style>
<g class="st0">
	<path class="st1" d="M108.3,571.4H57.6l-24,56.3c-0.5,0.8-0.8,1.7-0.8,2.5c0,2.4,1.9,4.3,5.6,5.7c3.7,1.4,7.4,2.1,11.1,2.1l0.3,4
		L0,642.4v-5c0.2,0,0.3,0,0.5,0c3.2,0,6.6-0.7,10.4-2.1c3.7-1.4,6.6-3.4,8.8-5.9c2.9-3.4,14.7-28.9,35.6-76.5l31.3-71.2h8.3
		l55.3,131c4.7,11.3,9.8,18.3,15.4,21c1.5,0.7,3.1,1.1,4.8,1.4c1.7,0.3,3.3,0.4,4.8,0.4s2.6,0.1,3.3,0.3l-0.5,6.3
		c-11.3-0.5-24-0.8-38.1-0.8c-12.8,0-23.1,0.3-31.1,0.8l0.3-4.8c0,0.2,1.5,0.3,4.5,0.3c6.1,0,10.3-1.4,12.6-4.3
		c1.2-1.3,1.8-3.2,1.8-5.6c0-2.2-0.5-4.6-1.5-7.3l-1.3-3.8L108.3,571.4z M60.6,565.4h45.7l-22.5-54.5L60.6,565.4z"/>
	<path class="st1" d="M236.8,631.8c3.7-4.7,5.6-9.5,5.6-14.4l0.3-129c-17.5-0.2-26.3-0.3-26.5-0.3c-4,0-7.7,1.5-10.9,4.5
		c-3.2,3-5.6,6.8-7.3,11.2c-1.7,4.5-3.1,8.8-4.2,13.1c-1.1,4.3-1.7,8.4-1.9,12.2h-4.8l1-47c18.8,0.5,42.8,0.8,72,0.8
		c27.4,0,48.6-0.3,63.4-0.8l0.8,47h-5c-1.5-26.9-8.5-40.5-21-40.6l-29.5-0.3l0.3,129c0,5.9,1.6,10.7,4.8,14.4
		c2.5,3,9.4,4.6,20.7,4.8v4.8h-77.5v-4.8c0.3,0,0.8,0,1.5,0c0.7,0,1.2,0,1.5,0C228.8,636.4,234.4,634.8,236.8,631.8z"/>
	<path class="st1" d="M488.8,641.6l-45.7-0.8c0-0.7,0-1.3,0-2c0-6.2-2.3-17.8-6.8-34.8c-7.7-28.3-18-42.5-30.8-42.7l-16.9-0.3
		l0.3,62.6c0,2.5,0.2,4.6,0.5,6.2c0.3,1.6,1.2,3.1,2.5,4.4c1.3,1.3,3.3,2,5.8,2c7.4,0.2,11.1,0.3,11.1,0.5l-0.3,4.8
		c-9.4-0.7-22-1-37.6-1c-12.5,0-22.1,0.3-28.8,0.8v-4.3c13.1,0,20-1.9,20.7-5.8c0.7-2.7,1-5.6,1-8.8c0.7-17,1-38.5,1-64.4
		c0-38.5-0.3-59.8-1-63.9c-0.3-1.8-3.5-3.4-9.3-4.8l-9.1-2v-4.5c9.9,0.3,21.7,0.5,35.3,0.5c5.6,0,12.5,0,21-0.1
		c8.4-0.1,13.8-0.1,16.2-0.1c6.4,0,12.8,1.5,19.2,4.4c6.4,2.9,11.9,7.5,16.5,13.8c4.6,6.2,6.9,13.3,6.9,21.2
		c0,8.6-4.1,16.4-12.4,23.4c-8.2,7-18,10.6-29.3,11c5.2,0.5,10,2,14.4,4.4c4.4,2.4,7.9,5,10.6,7.7c2.7,2.7,5.4,6.6,8.2,11.6
		c2.8,5,4.7,9.1,5.8,12.1c1.1,3,2.7,7.5,4.9,13.4c5.2,13.8,8.6,21.7,10.1,23.7c3.7,5.2,9,8,15.9,8.3V641.6z M416.6,489.6
		c-3.7-0.8-8.3-1.3-13.9-1.3c-5,0-9.7,0.3-13.9,0.8V555c11.4,0.2,17.3,0.3,17.4,0.3c9.4,0,16.6-3.3,21.6-9.8
		c5-6.6,7.4-14.4,7.4-23.5c0-7.7-1.7-14.7-5-21C426.8,494.8,422.3,491,416.6,489.6z"/>
	<path class="st1" d="M552.1,493.9c0,0.2,0,4.9-0.1,14.1c-0.1,9.3-0.2,20.8-0.3,34.7c-0.1,13.9-0.1,26.6-0.1,38
		c0,22.9,0.2,39.2,0.5,49c0.2,4.9,6.6,7.3,19.2,7.3l0.3,4c-5.4-0.2-12-0.3-19.9-0.3c-18.2,0-33.7,0.3-46.5,1v-4h1
		c12.5,0,19-1.9,19.7-5.8c0.8-5,1.3-51.2,1.3-138.6c0-1.9-3-3.4-9.1-4.8l-9.3-1.8v-3.8c7.9,0.7,18.1,1,30.5,1c13,0,23.1-0.3,30.3-1
		v5C557.9,488.9,552.1,490.9,552.1,493.9z"/>
	<path class="st1" d="M645.8,586.1c0,9.1,0.9,17,2.7,23.6c1.8,6.7,4,11.8,6.7,15.4c2.7,3.6,6.1,6.5,10.2,8.6c4.1,2.1,8,3.5,11.5,4
		c3.5,0.6,7.7,0.9,12.4,0.9c6.6,0,12.2-0.8,17-2.5c4.8-1.7,9.2-4.5,13.3-8.3c4-3.9,7.1-9.5,9.2-16.8c2.1-7.3,3.2-16.4,3.2-27.1
		c0-1.9,0-4.2,0-6.9c0-2.8,0-6.5,0-11.2c0-23.2-0.3-47.3-1-72.2c-0.3-1.9-4-3.4-10.9-4.8l-10.4-1.8v-3.8c7.9,0.7,17.1,1,27.5,1
		c11.1,0,20.4-0.3,27.8-1v5c-7.9,0.5-15.3,2.4-22.2,5.8c-0.5,10.6-0.8,23.5-0.8,38.6l0.8,48.2c0,20.4-4.9,36.1-14.6,47.3
		c-9.8,11.2-24.2,17.1-43.4,17.8c-5.9,0-11.7-0.5-17.4-1.6c-5.7-1.1-11.6-3.1-17.7-5.9c-6.1-2.9-11.3-6.5-15.8-11
		c-4.5-4.5-8.2-10.4-11.1-17.7c-2.9-7.3-4.4-15.6-4.4-24.9c0-0.5,0.1-3.2,0.4-8.2c0.3-5,0.5-12.1,0.9-21.3
		c0.3-9.3,0.5-19.5,0.5-30.8c0-10.3-0.2-20.6-0.5-31.1c-0.3-1.9-4-3.4-10.9-4.8l-10.4-1.8v-3.8c7.9,0.7,18.9,1,33.1,1
		c15.1,0,26.4-0.3,33.8-1v5c-9.9,0.8-16.4,2.8-19.4,5.8c-0.2,11.1-0.3,24.6-0.3,40.4L645.8,586.1z"/>
	<path class="st1" d="M830.1,482.8c41.6,80.1,63.5,122.7,65.6,127.7l55.8-126.7l43.4-1.8v5c-2.2,0.2-4.8,0.5-8,1
		c-3.1,0.5-6.6,1.5-10.4,2.9c-3.8,1.4-5.7,3.2-5.7,5.2v130l2,3.5c1.3,2.4,3.2,4.2,5.6,5.6c2.5,1.3,5.8,2.1,9.8,2.3l6.1-0.5v4.5
		c-9.6-0.3-21-0.5-34.1-0.5c-14.6,0-25.8,0.3-33.6,0.8v-4c0.3,0,2.4-0.2,6.1-0.5c3.7-0.3,6.5-1,8.3-2c4.5-2,6.8-4.7,6.8-8.1V512.8
		l-59.3,131.8h-4l-66.4-130.3v66.4c0,19,0,33.2,0,42.7c0,3,0.2,5.1,0.5,6.2c0.3,1.1,1.1,2,2.4,2.8c1.3,0.8,2.3,1.6,3.2,2.4
		c3.7,1.3,8.2,2.1,13.6,2.3c0.2,0,0.4,0,0.8,0c0.3,0,0.6,0,0.8,0v4.5c-8.2-0.5-17.2-0.8-26.8-0.8c-10.6,0-19.9,0.3-28,1v-4l10.1-1.3
		c6.7-1,11.1-2.4,13.1-4.3c1.2-1,2.1-2.4,2.8-4l0.8-2.5c0.3,0,0.5-39.5,0.5-118.4c-0.8-5-4.4-9.3-10.6-12.9
		c-6.2-3.5-12.5-5.6-18.7-6.1v-4.5L830.1,482.8z"/>
</g>
<g class="st0">
	<path class="st1" d="M401.6,782.6c-6.8,6.7-13.1,11.6-18.7,14.8c-5.7,3.1-11.6,4.7-17.8,4.7c-6.9,0-12.6-2.3-17.1-6.8
		c-4.5-4.5-6.8-10.2-6.8-17.1c0-11.4,4.1-21.8,12.4-31.5c8.3-9.6,17.3-14.4,26.9-14.4c4.7,0,8.6,1.3,11.6,4c3,2.6,4.5,6.1,4.5,10.3
		c0,1.5-0.3,2.6-0.8,3.4c-0.6,0.7-1.6,1.5-3.2,2.2l-9.3,4.4c-1.1,0.5-1.9,0.8-2.5,0.8c-0.7,0-1.1-0.5-1.1-1.6c0-0.4,0.2-1.8,0.5-4.2
		c0.3-2.4,0.5-3.8,0.5-4.4c0-2.3-0.5-4.2-1.5-5.7c-1-1.4-2.3-2.2-4-2.2c-3.9,0-7.4,2.9-10.7,8.6c-3.2,5.8-4.8,12.3-4.8,19.7
		c0,6.3,1.5,11.4,4.6,15.2c3,3.8,7.1,5.7,12.2,5.7c4.3,0,8.4-1.2,12.2-3.7c3.8-2.5,8.1-6.3,13-11.4V782.6z"/>
	<path class="st1" d="M486.9,782.6c-8.5,8.1-14.6,13.4-18.3,15.8c-3.7,2.5-7.2,3.7-10.6,3.7c-8.4,0-12.4-7.4-11.9-22.3
		c-5.3,7.6-10.2,13.2-14.8,16.9c-4.5,3.6-9.2,5.4-14,5.4c-4.7,0-8.7-2.2-12-6.6s-4.9-9.8-4.9-16.2c0-8,2.2-15.6,6.6-22.9
		c4.4-7.2,10-13.1,16.9-17.6c6.9-4.5,13-6.7,18.2-6.7c6.7,0,11.3,3.1,14,9.2l16.3-9h4.5l-7.1,23.4c-3.6,11.8-5.4,19.9-5.4,24.2
		c0,4.6,1.6,6.9,4.9,6.9c2.1,0,4.4-1.1,6.9-3.3c2.5-2.2,6-5.6,10.5-10.1V782.6z M428.4,787c5.3,0,10.4-4.5,15.1-13.6
		s7.1-17.5,7.1-25.1c0-3-0.7-5.3-2-7c-1.3-1.7-3.1-2.5-5.4-2.5c-5.3,0-10.4,4.5-15.1,13.6c-4.8,9.1-7.2,17.4-7.2,25
		c0,2.9,0.7,5.2,2.1,7C424.4,786.1,426.2,787,428.4,787z"/>
	<path class="st1" d="M551.8,782.6c-5.5,6.2-11,11-16.5,14.4c-5.4,3.4-10.3,5.1-14.5,5.1c-2,0-4.8-0.8-8.3-2.3
		c-2.2,11.7-4.2,24.4-5.9,38c-5.5,0.7-12.2,1.9-20,3.4c1.7-14.6,4.7-33.6,8.9-56.8c-0.6-1-1.6-3.6-3.1-7.7l-5.4,5.9h-1.8v-7.2
		l15.2-15.8c2.9-14.3,5.3-24.7,7.1-31s4.3-13.5,7.6-21.2c3.3-7.8,5.3-12.2,6.2-13.4c0.9-1.1,2.9-2.2,6.2-3.3c3.3-1,6.8-2,10.5-3
		c3.7-0.9,5.7-1.4,6-1.4c2,0,3.7,1.3,5,4s1.9,6.1,1.9,10.4c0,7.5-2,14.6-5.9,21.6c-3.9,6.9-11.4,15.4-22.3,25.6l-6.7,33.4
		c2.6,5.6,6.5,8.4,11.7,8.4c7.4,0,15.5-5.4,24.3-16.2V782.6z M524.9,737c6.2-5.4,11.1-11.3,14.7-17.5c3.5-6.3,5.3-12,5.3-17.3
		c0-2.2-0.4-4.1-1.2-5.5c-0.8-1.4-1.8-2.2-3.1-2.2c-2.3,0-4.7,3.1-7.1,9.2C531.1,709.8,528.2,720.9,524.9,737z"/>
	<path class="st1" d="M611.5,782.6c-6.8,6.7-12.8,11.6-18.2,14.8c-5.4,3.2-11.3,4.8-17.8,4.8c-7.2,0-13.1-2.3-17.5-7
		c-4.5-4.6-6.7-10.7-6.7-18.3c0-11.3,3.9-21.5,11.8-30.7c7.8-9.1,16.5-13.7,26.1-13.7c5,0,8.9,1.3,11.9,3.8c3,2.6,4.5,5.9,4.5,10.1
		c0,11-11.7,20-35.2,26.9c2.1,10.4,7.7,15.6,16.7,15.6c3.5,0,6.9-0.9,10.1-2.8c3.2-1.9,8-6.1,14.5-12.6V782.6z M569.6,767.8
		c13.6-3.8,20.5-10.9,20.5-21.3c0-5.1-1.9-7.7-5.6-7.7c-3.5,0-6.9,2.7-10.1,8C571.2,752.2,569.6,759.2,569.6,767.8z M616.8,694
		c-1.4,5.8-4.4,10.9-8.9,15.3c-4.5,4.4-11.5,9.2-20.9,14.5l-4.9-1.7c7.9-9.2,13.4-18,16.3-26.2L616.8,694z"/>
</g>
<path class="st1" d="M500,59c-88.5,0-160.3,71.8-160.3,160.3S411.5,379.6,500,379.6s160.3-71.8,160.3-160.3S588.5,59,500,59z
	 M500,360.1c-65.4,0-118.5-53-118.5-118.5s53-118.5,118.5-118.5s118.5,53,118.5,118.5S565.4,360.1,500,360.1z"/>
</svg>
