<svg width="1020" height="230" xmlns="http://www.w3.org/2000/svg">
 <style type="text/css">.st0{enable-background:new    ;}
	.st1{fill:#FFFFFF;}</style>

 <g>
  <title>background</title>
  <rect fill="none" id="canvas_background" height="232" width="1022" y="-1" x="-1"/>
 </g>
 <g>
  <title>Layer 1</title>
  <g id="svg_1" class="st0">
   <path id="svg_2" d="m284.369565,129.582617l-30.3,0l-14.3,33.7c-0.3,0.5 -0.5,1 -0.5,1.5c0,1.4 1.1,2.5 3.3,3.4c2.2,0.9 4.4,1.3 6.6,1.3l0.2,2.4l-29.7,0.2l0,-3c0.1,0 0.2,0 0.3,0c1.9,0 4,-0.4 6.2,-1.3c2.2,-0.9 4,-2 5.3,-3.5c1.7,-2 8.8,-17.3 21.3,-45.7l18.7,-42.6l5,0l33.1,78.3c2.8,6.7 5.9,10.9 9.2,12.5c0.9,0.4 1.9,0.7 2.9,0.8c1,0.2 2,0.2 2.9,0.2c0.9,0 1.6,0.1 2,0.2l-0.3,3.8c-6.7,-0.3 -14.3,-0.5 -22.8,-0.5c-7.6,0 -13.8,0.2 -18.6,0.5l0.2,-2.9c0,0.1 0.9,0.2 2.7,0.2c3.6,0 6.1,-0.9 7.5,-2.6c0.7,-0.8 1.1,-1.9 1.1,-3.3c0,-1.3 -0.3,-2.8 -0.9,-4.4l-0.8,-2.3l-10.3,-26.9zm-28.5,-3.7l27.3,0l-13.4,-32.6l-13.9,32.6z" class="st1"/>
   <path id="svg_3" d="m361.169565,165.582617c2.2,-2.8 3.3,-5.7 3.3,-8.6l0.2,-77.1c-10.5,-0.1 -15.7,-0.2 -15.8,-0.2c-2.4,0 -4.6,0.9 -6.5,2.7c-1.9,1.8 -3.4,4.1 -4.4,6.7c-1,2.7 -1.8,5.3 -2.5,7.8c-0.7,2.6 -1,5 -1.1,7.3l-2.9,0l0.6,-28.1c11.3,0.3 25.6,0.5 43,0.5c16.4,0 29,-0.2 37.9,-0.5l0.5,28.1l-3,0c-0.9,-16.1 -5.1,-24.2 -12.5,-24.3l-17.7,-0.2l0.2,77.1c0,3.5 1,6.4 2.9,8.6c1.5,1.8 5.6,2.8 12.4,2.9l0,2.9l-46.3,0l0,-2.9c0.2,0 0.5,0 0.9,0c0.4,0 0.7,0 0.9,0c5.2,0.1 8.5,-0.9 9.9,-2.7z" class="st1"/>
   <path id="svg_4" d="m511.869565,171.482617l-27.3,-0.5c0,-0.4 0,-0.8 0,-1.2c0,-3.7 -1.4,-10.7 -4.1,-20.8c-4.6,-16.9 -10.8,-25.4 -18.4,-25.5l-10.1,-0.2l0.2,37.4c0,1.5 0.1,2.7 0.3,3.7c0.2,1 0.7,1.8 1.5,2.6c0.8,0.8 2,1.2 3.5,1.2c4.4,0.1 6.6,0.2 6.6,0.3l-0.2,2.9c-5.6,-0.4 -13.1,-0.6 -22.5,-0.6c-7.4,0 -13.2,0.2 -17.2,0.5l0,-2.5c7.8,0 12,-1.2 12.4,-3.5c0.4,-1.6 0.6,-3.4 0.6,-5.3c0.4,-10.2 0.6,-23 0.6,-38.5c0,-23 -0.2,-35.8 -0.6,-38.2c-0.2,-1.1 -2.1,-2.1 -5.6,-2.9l-5.4,-1.2l0,-2.7c5.9,0.2 13,0.3 21.1,0.3c3.3,0 7.5,0 12.5,-0.1c5,0 8.2,-0.1 9.7,-0.1c3.8,0 7.6,0.9 11.5,2.6c3.8,1.8 7.1,4.5 9.9,8.2c2.8,3.7 4.2,7.9 4.2,12.7c0,5.1 -2.5,9.8 -7.4,14c-4.9,4.2 -10.8,6.4 -17.5,6.6c3.1,0.3 6,1.2 8.6,2.6c2.6,1.5 4.7,3 6.3,4.6c1.6,1.6 3.2,3.9 4.9,6.9c1.7,3 2.8,5.4 3.5,7.2c0.7,1.8 1.6,4.5 2.9,8c3.1,8.3 5.1,13 6,14.2c2.2,3.1 5.4,4.8 9.5,5l0,2.3zm-43.2,-90.8c-2.2,-0.5 -5,-0.8 -8.3,-0.8c-3,0 -5.8,0.2 -8.3,0.5l0,39.4c6.8,0.1 10.3,0.2 10.4,0.2c5.6,0 9.9,-2 12.9,-5.9c3,-3.9 4.5,-8.6 4.5,-14c0,-4.6 -1,-8.8 -3,-12.5c-2.1,-3.9 -4.8,-6.1 -8.2,-6.9z" class="st1"/>
   <path id="svg_5" d="m549.669565,83.182617c0,0.1 0,2.9 -0.1,8.5c-0.1,5.5 -0.1,12.5 -0.2,20.8c-0.1,8.3 -0.1,15.9 -0.1,22.7c0,13.7 0.1,23.4 0.3,29.3c0.1,2.9 3.9,4.4 11.5,4.4l0.2,2.4c-3.2,-0.1 -7.2,-0.2 -11.9,-0.2c-10.9,0 -20.1,0.2 -27.8,0.6l0,-2.4l0.6,0c7.4,0 11.4,-1.2 11.8,-3.5c0.5,-3 0.8,-30.6 0.8,-82.9c0,-1.1 -1.8,-2.1 -5.4,-2.9l-5.6,-1.1l0,-2.3c4.7,0.4 10.8,0.6 18.3,0.6c7.7,0 13.8,-0.2 18.1,-0.6l0,3c-7,0.7 -10.5,1.8 -10.5,3.6z" class="st1"/>
   <path id="svg_6" d="m605.669565,138.282617c0,5.4 0.5,10.1 1.6,14.1c1.1,4 2.4,7 4,9.2c1.6,2.2 3.6,3.9 6.1,5.1c2.5,1.3 4.8,2.1 6.9,2.4c2.1,0.4 4.6,0.5 7.4,0.5c3.9,0 7.3,-0.5 10.2,-1.5c2.9,-1 5.5,-2.7 7.9,-5c2.4,-2.3 4.2,-5.7 5.5,-10c1.3,-4.4 1.9,-9.8 1.9,-16.2c0,-1.1 0,-2.5 0,-4.1s0,-3.9 0,-6.7c0,-13.9 -0.2,-28.3 -0.6,-43.2c-0.2,-1.1 -2.4,-2.1 -6.5,-2.9l-6.2,-1.1l0,-2.3c4.7,0.4 10.2,0.6 16.5,0.6c6.6,0 12.2,-0.2 16.6,-0.6l0,3c-4.7,0.3 -9.2,1.5 -13.3,3.5c-0.3,6.3 -0.5,14 -0.5,23.1l0.5,28.8c0,12.2 -2.9,21.6 -8.8,28.3c-5.8,6.7 -14.5,10.2 -26,10.6c-3.5,0 -7,-0.3 -10.4,-1c-3.4,-0.7 -6.9,-1.8 -10.6,-3.5c-3.6,-1.7 -6.8,-3.9 -9.4,-6.6c-2.7,-2.7 -4.9,-6.2 -6.6,-10.6c-1.8,-4.4 -2.6,-9.3 -2.6,-14.9c0,-0.3 0.1,-1.9 0.2,-4.9c0.2,-3 0.3,-7.2 0.5,-12.8c0.2,-5.5 0.3,-11.7 0.3,-18.4c0,-6.1 -0.1,-12.3 -0.3,-18.6c-0.2,-1.1 -2.4,-2.1 -6.5,-2.9l-6.2,-1.1l0,-2.3c4.7,0.4 11.3,0.6 19.8,0.6c9.1,0 15.8,-0.2 20.2,-0.6l0,3c-5.9,0.5 -9.8,1.7 -11.6,3.5c-0.1,6.6 -0.2,14.7 -0.2,24.1l0.2,31.4z" class="st1"/>
   <path id="svg_7" d="m715.869565,76.582617c24.8,47.9 37.9,73.3 39.2,76.4l33.4,-75.8l26,-1.1l0,3c-1.3,0.1 -2.9,0.3 -4.8,0.6c-1.9,0.3 -3.9,0.9 -6.2,1.7c-2.3,0.9 -3.4,1.9 -3.4,3.1l0,77.7l1.2,2.1c0.8,1.4 1.9,2.5 3.3,3.3c1.5,0.8 3.5,1.3 5.9,1.4l3.6,-0.3l0,2.7c-5.7,-0.2 -12.5,-0.3 -20.4,-0.3c-8.8,0 -15.4,0.2 -20.1,0.5l0,-2.4c0.2,0 1.4,-0.1 3.6,-0.3c2.2,-0.2 3.9,-0.6 5,-1.2c2.7,-1.2 4.1,-2.8 4.1,-4.8l0,-68.4l-35.4,78.8l-2.4,0l-39.7,-77.9l0,39.7c0,11.4 0,19.9 0,25.5c0,1.8 0.1,3 0.3,3.7c0.2,0.7 0.7,1.2 1.4,1.7c0.8,0.5 1.4,0.9 1.9,1.4c2.2,0.8 4.9,1.3 8.1,1.4c0.1,0 0.3,0 0.5,0c0.2,0 0.4,0 0.5,0l0,2.7c-4.9,-0.3 -10.3,-0.5 -16,-0.5c-6.3,0 -11.9,0.2 -16.8,0.6l0,-2.4l6,-0.8c4,-0.6 6.6,-1.5 7.8,-2.6c0.7,-0.6 1.3,-1.4 1.7,-2.4l0.5,-1.5c0.2,0 0.3,-23.6 0.3,-70.8c-0.5,-3 -2.6,-5.6 -6.3,-7.7c-3.7,-2.1 -7.4,-3.3 -11.2,-3.6l0,-2.7l28.4,-0.5z" class="st1"/>
  </g>
  <g id="svg_8" class="st0">
   <path id="svg_9" d="m882.169565,160.282617c-4.1,4 -7.8,7 -11.2,8.8c-3.4,1.9 -6.9,2.8 -10.6,2.8c-4.1,0 -7.6,-1.3 -10.3,-4c-2.7,-2.7 -4,-6.1 -4,-10.3c0,-6.8 2.5,-13.1 7.4,-18.8c5,-5.8 10.3,-8.6 16.1,-8.6c2.8,0 5.1,0.8 6.9,2.4c1.8,1.6 2.7,3.6 2.7,6.1c0,0.9 -0.2,1.6 -0.5,2c-0.3,0.4 -1,0.9 -1.9,1.3l-5.5,2.6c-0.7,0.3 -1.2,0.5 -1.5,0.5c-0.4,0 -0.7,-0.3 -0.7,-1c0,-0.3 0.1,-1.1 0.3,-2.5c0.2,-1.4 0.3,-2.3 0.3,-2.6c0,-1.4 -0.3,-2.5 -0.9,-3.4c-0.6,-0.9 -1.4,-1.3 -2.4,-1.3c-2.3,0 -4.5,1.7 -6.4,5.2c-1.9,3.4 -2.9,7.4 -2.9,11.8c0,3.8 0.9,6.8 2.7,9.1c1.8,2.3 4.2,3.4 7.3,3.4c2.6,0 5,-0.7 7.3,-2.2c2.3,-1.5 4.9,-3.8 7.8,-6.8l0,5.5z" class="st1"/>
   <path id="svg_10" d="m933.169565,160.282617c-5.1,4.8 -8.7,8 -10.9,9.5c-2.2,1.5 -4.3,2.2 -6.3,2.2c-5,0 -7.4,-4.4 -7.1,-13.3c-3.2,4.6 -6.1,7.9 -8.8,10.1c-2.7,2.2 -5.5,3.3 -8.3,3.3c-2.8,0 -5.2,-1.3 -7.1,-3.9c-2,-2.6 -2.9,-5.9 -2.9,-9.7c0,-4.8 1.3,-9.3 3.9,-13.7s6,-7.8 10.1,-10.5c4.1,-2.7 7.7,-4 10.9,-4c4,0 6.8,1.8 8.4,5.5l9.8,-5.4l2.7,0l-4.2,14c-2.2,7 -3.3,11.9 -3.3,14.5c0,2.7 1,4.1 2.9,4.1c1.2,0 2.6,-0.7 4.1,-2s3.6,-3.3 6.3,-6l0,5.3l-0.2,0zm-35,2.7c3.2,0 6.2,-2.7 9,-8.1c2.8,-5.4 4.2,-10.4 4.2,-15c0,-1.8 -0.4,-3.2 -1.2,-4.2c-0.8,-1 -1.9,-1.5 -3.2,-1.5c-3.2,0 -6.2,2.7 -9.1,8.1c-2.9,5.4 -4.3,10.4 -4.3,15c0,1.7 0.4,3.1 1.3,4.2c0.9,0.9 2,1.5 3.3,1.5z" class="st1"/>
   <path id="svg_11" d="m971.969565,160.282617c-3.3,3.7 -6.6,6.6 -9.8,8.6s-6.1,3 -8.7,3c-1.2,0 -2.9,-0.5 -5,-1.4c-1.3,7 -2.5,14.6 -3.6,22.7c-3.3,0.4 -7.3,1.1 -12,2.1c1,-8.7 2.8,-20.1 5.3,-34c-0.4,-0.6 -1,-2.1 -1.9,-4.6l-3.2,3.5l-1.1,0l0,-4.3l9.1,-9.4c1.7,-8.5 3.1,-14.7 4.2,-18.6c1.1,-3.8 2.6,-8.1 4.5,-12.7c1.9,-4.6 3.2,-7.3 3.7,-8c0.5,-0.7 1.7,-1.3 3.7,-2c2,-0.6 4.1,-1.2 6.3,-1.8c2.2,-0.6 3.4,-0.8 3.6,-0.8c1.2,0 2.2,0.8 3,2.4c0.8,1.6 1.1,3.7 1.1,6.2c0,4.5 -1.2,8.8 -3.5,12.9c-2.4,4.1 -6.8,9.2 -13.3,15.3l-4,20c1.6,3.3 3.9,5 7,5c4.5,0 9.3,-3.2 14.5,-9.7l0,5.6l0.1,0zm-16.1,-27.2c3.7,-3.3 6.6,-6.7 8.8,-10.5s3.2,-7.2 3.2,-10.3c0,-1.3 -0.2,-2.4 -0.7,-3.3c-0.5,-0.9 -1.1,-1.3 -1.8,-1.3c-1.4,0 -2.8,1.8 -4.3,5.5s-3.2,10.3 -5.2,19.9z" class="st1"/>
   <path id="svg_12" d="m1007.669565,160.282617c-4,4 -7.7,6.9 -10.9,8.8c-3.2,1.9 -6.8,2.8 -10.7,2.8c-4.3,0 -7.8,-1.4 -10.5,-4.2s-4,-6.4 -4,-10.9c0,-6.8 2.3,-12.9 7,-18.3c4.7,-5.5 9.9,-8.2 15.6,-8.2c3,0 5.3,0.8 7.1,2.3s2.7,3.5 2.7,6c0,6.6 -7,11.9 -21,16.1c1.3,6.2 4.6,9.3 10,9.3c2.1,0 4.1,-0.6 6,-1.7c1.9,-1.1 4.8,-3.6 8.6,-7.5l0,5.5l0.1,0zm-25.1,-8.8c8.2,-2.3 12.2,-6.5 12.2,-12.7c0,-3.1 -1.1,-4.6 -3.3,-4.6c-2.1,0 -4.1,1.6 -6,4.8c-1.9,3.2 -2.9,7.4 -2.9,12.5zm28.2,-44.1c-0.9,3.5 -2.6,6.5 -5.3,9.2c-2.7,2.6 -6.9,5.5 -12.5,8.7l-2.9,-1c4.7,-5.5 8,-10.7 9.7,-15.7l11,-1.2z" class="st1"/>
  </g>
  <path id="svg_13" d="m106.669565,11.282617c-52.9,0 -95.8,42.9 -95.8,95.8s42.9,95.8 95.8,95.8s95.8,-42.9 95.8,-95.8s-42.9,-95.8 -95.8,-95.8zm0,180c-39.1,0 -70.8,-31.7 -70.8,-70.8s31.7,-70.8 70.8,-70.8s70.8,31.7 70.8,70.8s-31.7,70.8 -70.8,70.8z" class="st1"/>
 </g>
</svg>